#N canvas 785 162 404 339 12;
#X obj 42 81 writesf~;
#X msg 85 175 open -bytes 3 /tmp/\$1_rec.wav, f 15;
#X obj 85 150 \$0;
#X obj 42 22 inlet~;
#X obj 52 51 r recording\$0;
#X obj 37 217 s recording\$0;
#X obj 195 19 tgl 15 0 empty empty empty 17 7 0 10 #fcfcfc #000000
#000000 0 1;
#X obj 195 44 sel 1 0;
#X obj 37 120 t b b;
#X msg 37 150 start;
#X obj 218 71 t b b;
#X msg 122 150 stop;
#X obj 251 133 \$0;
#X obj 251 215 soundfiler;
#X msg 251 158 read -resize /tmp/\$1_rec.wav rec\$1, f 15;
#X obj 251 108 del 50;
#X obj 297 32 table rec\$0;
#X connect 1 0 5 0;
#X connect 2 0 1 0;
#X connect 3 0 0 0;
#X connect 4 0 0 0;
#X connect 6 0 7 0;
#X connect 7 0 8 0;
#X connect 7 1 10 0;
#X connect 8 0 9 0;
#X connect 8 1 2 0;
#X connect 9 0 5 0;
#X connect 10 0 15 0;
#X connect 10 1 11 0;
#X connect 11 0 5 0;
#X connect 12 0 14 0;
#X connect 14 0 13 0;
#X connect 15 0 12 0;
