#N canvas 458 221 461 318 12;
#X obj 22 21 netreceive -u -b 4444;
#X obj 22 46 oscparse;
#X obj 22 71 list trim;
#X obj 22 96 route track;
#X obj 22 121 list split 1;
#X obj 22 148 float;
#X obj 22 175 list append;
#X obj 22 200 list trim;
#X obj 22 225 outlet;
#X obj 233 123 oscformat track position;
#X obj 243 150 loadbang;
#X msg 243 175 connect localhost 4445;
#X obj 233 205 netsend -u -b;
#X obj 233 97 r track_positions;
#X connect 0 0 1 0;
#X connect 1 0 2 0;
#X connect 2 0 3 0;
#X connect 3 0 4 0;
#X connect 4 0 5 0;
#X connect 4 1 6 1;
#X connect 5 0 6 0;
#X connect 6 0 7 0;
#X connect 7 0 8 0;
#X connect 9 0 12 0;
#X connect 10 0 11 0;
#X connect 11 0 12 0;
#X connect 13 0 9 0;
