#N canvas 514 36 482 384 12;
#X obj 159 24 tgl 15 0 empty empty empty 17 7 0 10 #fcfcfc #000000
#000000 0 1;
#X obj 159 49 sel 1 0;
#X obj 22 257 timer;
#X obj 338 19 loadbang;
#X obj 338 45 samplerate~;
#X obj 159 226 t b b;
#X msg 228 101 stop;
#X obj 182 75 t b b b;
#X obj 343 153 t b b;
#X obj 343 283 pack s f f;
#X obj 343 308 prepend table;
#X obj 72 141 delay 60000;
#X msg 9 171 stop;
#X obj 343 339 outlet;
#X obj 22 24 inlet~;
#X obj 33 53 r recording\$0;
#X obj 376 234 v size\$0;
#X obj 410 258 v sr\$0;
#X obj 338 70 v sr\$0;
#X obj 239 27 table rec\$0;
#X obj 22 84 tabwrite~ rec\$0;
#X obj 22 230 r beginCount\$0;
#X obj 54 205 r endCount\$0;
#X obj 191 282 expr 60 * sr\$0;
#X obj 191 307 array size rec\$0;
#X obj 22 325 array size rec\$0;
#X obj 159 333 s recording\$0;
#X obj 228 126 s recording\$0;
#X obj 205 152 s endCount\$0;
#X obj 182 178 s sendData\$0;
#X obj 343 127 r sendData\$0;
#X obj 343 181 \$0;
#X msg 343 208 symbol rec\$1;
#X obj 202 257 s beginCount\$0;
#X obj 22 282 expr size\$0 = $f1*( sr\$0 / 1000), f 18;
#X connect 0 0 1 0;
#X connect 1 0 5 0;
#X connect 1 1 7 0;
#X connect 2 0 34 0;
#X connect 3 0 4 0;
#X connect 4 0 18 0;
#X connect 5 0 26 0;
#X connect 5 1 23 0;
#X connect 5 1 33 0;
#X connect 6 0 27 0;
#X connect 7 0 29 0;
#X connect 7 1 28 0;
#X connect 7 2 6 0;
#X connect 8 0 31 0;
#X connect 8 1 16 0;
#X connect 8 1 17 0;
#X connect 9 0 10 0;
#X connect 10 0 13 0;
#X connect 11 0 0 0;
#X connect 12 0 11 0;
#X connect 14 0 20 0;
#X connect 15 0 20 0;
#X connect 16 0 9 1;
#X connect 17 0 9 2;
#X connect 21 0 2 0;
#X connect 21 0 11 0;
#X connect 22 0 2 1;
#X connect 22 0 12 0;
#X connect 23 0 24 0;
#X connect 30 0 8 0;
#X connect 31 0 32 0;
#X connect 32 0 9 0;
#X connect 34 0 25 0;
