#N canvas 566 107 514 442 12;
#X obj 31 167 outlet~;
#X obj 30 32 inlet;
#X obj 30 57 broadcast \$0;
#N canvas 825 66 412 565 table-reader 0;
#X obj 36 229 phasor~;
#X obj 36 35 r rate_\$0;
#X obj 36 314 *~;
#X obj 36 389 +~;
#X obj 54 262 r length_\$0;
#X obj 36 416 tabread4~ b_\$0;
#X obj 179 248 env~;
#X obj 179 273 dbtorms;
#X obj 36 521 outlet~;
#X obj 179 314 outlet;
#X obj 118 23 r \$0speed;
#X obj 118 49 / 100;
#X obj 54 339 r start-pnt_\$0;
#X obj 238 103 r \$0reverse;
#X obj 36 123 pack f 50;
#X obj 36 148 line~;
#X obj 36 95 mul 1;
#X msg 144 117 -1, f 2;
#X msg 176 117 1, f 2;
#X obj 144 92 sel 1;
#X obj 36 443 *~;
#X obj 144 473 EG~;
#X obj 144 444 r \$0play;
#X obj 217 453 r \$0env;
#X obj 162 498 s is_playing\$0;
#X obj 36 69 mul 1;
#X obj 36 482 *~;
#X obj 110 528 pot~ \$0level 1;
#X obj 238 283 b;
#X obj 238 318 f;
#X obj 82 153 r \$0location;
#X obj 238 343 s \$0location;
#X obj 94 387 r setTable\$0;
#X obj 36 199 modulate~;
#X obj 115 198 inlet~;
#X connect 0 0 6 0;
#X connect 0 0 2 0;
#X connect 1 0 25 0;
#X connect 2 0 3 0;
#X connect 3 0 5 0;
#X connect 4 0 2 1;
#X connect 5 0 20 0;
#X connect 6 0 7 0;
#X connect 7 0 29 1;
#X connect 7 0 9 0;
#X connect 10 0 11 0;
#X connect 11 0 25 1;
#X connect 12 0 3 1;
#X connect 13 0 19 0;
#X connect 13 0 28 0;
#X connect 14 0 15 0;
#X connect 15 0 33 0;
#X connect 16 0 14 0;
#X connect 17 0 16 1;
#X connect 18 0 16 1;
#X connect 19 0 17 0;
#X connect 19 1 18 0;
#X connect 20 0 26 0;
#X connect 21 0 20 1;
#X connect 21 1 24 0;
#X connect 22 0 21 0;
#X connect 23 0 21 1;
#X connect 25 0 16 0;
#X connect 26 0 8 0;
#X connect 27 0 26 1;
#X connect 28 0 29 0;
#X connect 29 0 31 0;
#X connect 30 0 0 1;
#X connect 32 0 5 0;
#X connect 33 0 0 0;
#X connect 34 0 33 1;
#X restore 30 138 pd table-reader;
#N canvas 502 120 743 437 trim 0;
#X obj 13 174 s length_\$0;
#X obj 410 72 / 1000;
#X obj 472 159 *;
#X obj 98 142 /;
#X obj 107 171 swap 1;
#X obj 107 196 /, f 6;
#X obj 107 221 s rate_\$0;
#X obj 98 77 r total-length_\$0;
#X obj 271 52 r smprate_\$0;
#X obj 98 390 s duration_\$0;
#X obj 98 251 * 1000;
#X obj 98 114 --;
#X obj 300 278 ++;
#X obj 300 84 r \$0trim-end;
#X obj 472 101 r \$0trim-start;
#X obj 472 370 s start-pnt_\$0;
#X obj 547 312 r loop_from_point\$0;
#X obj 542 195 r \$0loop-point;
#X obj 117 278 r \$0speed;
#X obj 98 363 / 1;
#X obj 117 333 t b f;
#X obj 117 305 / 100;
#X text 147 253 sec to ms \;;
#X obj 529 228 *;
#X obj 420 200 --;
#X obj 420 225 -;
#X obj 505 260 max;
#X obj 529 157 b;
#X text 473 15 lengths in samples \; measures in ms \; t_start < total
- t_end \; t_end < total - t_start \; t_start < loop_p < total - t_end
;
#N canvas 458 221 450 300 activeY 0;
#X obj 77 80 inlet;
#X obj 265 83 inlet;
#X obj 304 52 inlet;
#X obj 131 199 outlet;
#X obj 77 155 spigot 1;
#X obj 265 158 spigot;
#X obj 175 51 == 0;
#X obj 77 122 f;
#X obj 265 125 f;
#X obj 175 84 b;
#X connect 0 0 7 0;
#X connect 1 0 8 0;
#X connect 2 0 5 1;
#X connect 2 0 6 0;
#X connect 4 0 3 0;
#X connect 5 0 3 0;
#X connect 6 0 4 1;
#X connect 6 0 9 0;
#X connect 7 0 4 0;
#X connect 8 0 5 0;
#X connect 9 0 7 0;
#X connect 9 0 8 0;
#X restore 472 340 pd activeY;
#X obj 472 307 min;
#X obj 505 307 min;
#X obj 238 327 s real-tr-end_\$0;
#X obj 248 352 s real-tr-start_\$0;
#X obj 258 377 s real-loop-pnt_\$0;
#X obj 300 163 *;
#X obj 300 218 min;
#X obj 300 253 max 0;
#X obj 353 198 --;
#X obj 353 223 -;
#X connect 1 0 2 1;
#X connect 1 0 23 1;
#X connect 1 0 25 1;
#X connect 1 0 35 1;
#X connect 1 0 39 1;
#X connect 2 0 26 1;
#X connect 2 0 30 0;
#X connect 3 0 4 0;
#X connect 3 0 10 0;
#X connect 4 0 5 0;
#X connect 4 1 5 1;
#X connect 5 0 6 0;
#X connect 7 0 11 0;
#X connect 7 0 24 0;
#X connect 7 0 38 0;
#X connect 8 0 1 0;
#X connect 8 0 3 1;
#X connect 10 0 19 0;
#X connect 11 0 0 0;
#X connect 11 0 3 0;
#X connect 12 0 11 1;
#X connect 13 0 27 0;
#X connect 13 0 35 0;
#X connect 13 0 24 1;
#X connect 14 0 2 0;
#X connect 14 0 27 0;
#X connect 14 0 38 1;
#X connect 16 0 29 2;
#X connect 17 0 23 0;
#X connect 18 0 21 0;
#X connect 19 0 9 0;
#X connect 20 0 19 0;
#X connect 20 1 19 1;
#X connect 21 0 20 0;
#X connect 23 0 26 0;
#X connect 24 0 25 0;
#X connect 25 0 30 1;
#X connect 25 0 31 1;
#X connect 26 0 31 0;
#X connect 27 0 23 0;
#X connect 29 0 15 0;
#X connect 29 0 12 1;
#X connect 30 0 29 0;
#X connect 30 0 33 0;
#X connect 31 0 29 1;
#X connect 31 0 34 0;
#X connect 35 0 36 0;
#X connect 36 0 37 0;
#X connect 37 0 12 0;
#X connect 37 0 32 0;
#X connect 38 0 39 0;
#X connect 39 0 36 1;
#X restore 30 85 pd trim;
#N canvas 773 102 409 486 looping 0;
#X obj 70 240 r duration_\$0;
#X obj 22 344 delay;
#X msg 22 401 0, f 2;
#X msg 54 314 stop;
#X msg 22 210 1 \$1;
#X obj 22 235 -;
#X obj 22 260 *;
#X obj 22 286 t f b;
#X obj 117 355 r \$0loop;
#X text 68 219 don't restart delay;
#X obj 22 375 AB;
#X obj 215 415 s loop_from_point\$0;
#X msg 169 395 1, f 2;
#X msg 215 203 0;
#X obj 22 183 t f b;
#X obj 22 427 s is_playing\$0;
#X obj 82 344 b;
#X obj 162 67 r \$0reverse;
#X text 18 22 if normal direction \, time left = 0 - now position \;
if reversed \, time left = 1 - now position \;, f 51;
#X obj 22 133 -;
#X obj 22 158 abs;
#X obj 162 96 t b f;
#X obj 22 60 r \$0location;
#X obj 22 85 pack f 0;
#X msg 22 109 \$2 \$1;
#X connect 0 0 6 1;
#X connect 1 0 10 0;
#X connect 2 0 15 0;
#X connect 3 0 1 0;
#X connect 4 0 5 0;
#X connect 5 0 6 0;
#X connect 6 0 7 0;
#X connect 7 0 1 0;
#X connect 7 1 3 0;
#X connect 8 0 10 1;
#X connect 10 0 2 0;
#X connect 10 1 12 0;
#X connect 10 1 16 0;
#X connect 12 0 11 0;
#X connect 13 0 11 0;
#X connect 14 0 4 0;
#X connect 14 1 13 0;
#X connect 16 0 1 0;
#X connect 17 0 21 0;
#X connect 19 0 20 0;
#X connect 20 0 14 0;
#X connect 21 0 23 0;
#X connect 21 1 23 1;
#X connect 22 0 23 0;
#X connect 23 0 24 0;
#X connect 24 0 19 0;
#X restore 30 111 pd looping;
#X obj 269 212 openpanel;
#X obj 269 237 s \$0file;
#X floatatom 371 171 5 0 0 0 - - - 0;
#X obj 371 194 s \$0speed;
#X obj 393 223 tgl 15 0 empty empty empty 17 7 0 10 #fcfcfc #000000
#000000 0 1;
#X obj 393 244 s \$0loop;
#X floatatom 371 19 5 0 0 0 - - - 0;
#X obj 371 43 s \$0trim-start;
#X floatatom 371 69 5 0 0 0 - - - 0;
#X obj 371 93 s \$0trim-end;
#N canvas 0 50 450 250 (subpatch) 0;
#X array b_\$0 182857 float 0;
#X coords 0 1 182856 -1 96 60 1 0 0;
#X restore 258 26 graph;
#X obj 248 281 tgl 15 0 empty empty empty 17 7 0 10 #fcfcfc #000000
#000000 0 1;
#X obj 248 303 s \$0reverse;
#X msg 269 171 symbol ~/samples, f 9;
#X floatatom 40 272 5 0 0 0 - - - 0;
#X floatatom 248 100 5 0 0 0 - - - 0;
#X obj 248 124 s \$0loop-point;
#X obj 333 282 bng 15 250 50 0 empty empty empty 17 7 0 10 #fcfcfc
#000000 #000000;
#N canvas 667 200 450 157 play 0;
#X obj 37 37 inlet;
#X msg 37 62 1;
#X obj 37 87 s \$0play;
#X obj 104 82 s \$0location;
#X obj 122 29 r \$0reverse;
#X obj 104 57 f;
#X connect 0 0 1 0;
#X connect 0 0 5 0;
#X connect 1 0 2 0;
#X connect 4 0 5 1;
#X connect 5 0 3 0;
#X restore 333 303 pd play;
#X obj 132 59 r is_playing\$0;
#X msg 399 278 0;
#X obj 399 303 s \$0play;
#X obj 132 84 switch~;
#X obj 371 122 loadbang;
#X msg 371 146 100;
#X obj 40 296 s \$0sliceCount;
#X obj 142 197 outlet;
#X obj 97 249 hradio 15 1 0 8 empty empty empty 0 -8 0 10 #fcfcfc #000000
#000000 0;
#X obj 97 270 s \$0slice;
#N canvas 458 221 450 280 slices 0;
#X obj 68 44 inlet;
#X obj 68 170 outlet;
#X obj 68 91 * 8;
#X obj 68 116 i;
#X obj 68 140 change;
#X obj 188 43 r \$0sliceCount;
#X obj 170 86 r \$0slice;
#X obj 264 77 r \$0reverse;
#X obj 170 111 / 8;
#X obj 170 167 s \$0location;
#X obj 170 137 +;
#X text 18 205 location normal: (slice / sliceCount) + (0/sliceCount)
\; location reversed: (slice / sliceCount) + (1/sliceCount) \;;
#X obj 264 117 / 8;
#X connect 0 0 2 0;
#X connect 2 0 3 0;
#X connect 3 0 4 0;
#X connect 4 0 1 0;
#X connect 5 0 2 1;
#X connect 5 0 8 1;
#X connect 5 0 12 1;
#X connect 6 0 8 0;
#X connect 7 0 12 0;
#X connect 8 0 10 0;
#X connect 10 0 9 0;
#X connect 12 0 10 1;
#X restore 132 167 pd slices;
#X msg 97 222 set \$1;
#N canvas 402 306 450 300 visual 0;
#X obj 31 220 hsl 128 15 0 1 0 0 empty empty empty -2 -8 0 10 #fcfcfc
#000000 #000000 0 1;
#X obj 31 240 hsl 128 15 0 1 0 0 empty empty empty -2 -8 0 10 #fcfcfc
#000000 #000000 0 1;
#X obj 31 260 hsl 128 15 1 0 0 0 empty empty empty -2 -8 0 10 #fcfcfc
#000000 #000000 0 1;
#X obj 73 168 /;
#X obj 115 168 /;
#X obj 157 169 /;
#X obj 175 124 r total-length_\$0;
#X obj 22 41 r real-tr-start_\$0;
#X obj 50 69 r real-loop-pnt_\$0;
#X obj 86 94 r real-tr-end_\$0;
#X connect 3 0 0 0;
#X connect 4 0 1 0;
#X connect 5 0 2 0;
#X connect 6 0 4 1;
#X connect 6 0 5 1;
#X connect 6 0 3 1;
#X connect 7 0 3 0;
#X connect 8 0 4 0;
#X connect 9 0 5 0;
#X coords 0 -1 1 1 150 80 1 20 200;
#X restore 136 331 pd visual;
#N canvas 223 165 463 236 fill-table 0;
#X msg 279 78 read -resize \$1 b_\$2;
#X obj 279 103 soundfiler;
#X obj 279 52 pack s \$0;
#X msg 346 128 \$1;
#X obj 346 159 s smprate_\$0;
#X obj 279 185 s total-length_\$0;
#X obj 279 27 r \$0file;
#X obj 51 37 r \$0table;
#X obj 177 103 unpack s f f;
#X text 41 17 name \, size \, sampRate;
#X msg 177 128 set \$1;
#X obj 177 153 s setTable\$0;
#X obj 51 63 route reset;
#X obj 51 88 b;
#X obj 51 113 \$0;
#X msg 51 138 \; setTable\$1 b_\$1;
#X connect 0 0 1 0;
#X connect 1 0 5 0;
#X connect 1 1 3 0;
#X connect 2 0 0 0;
#X connect 3 0 4 0;
#X connect 6 0 2 0;
#X connect 7 0 12 0;
#X connect 8 0 10 0;
#X connect 8 1 5 0;
#X connect 8 2 4 0;
#X connect 10 0 11 0;
#X connect 12 0 13 0;
#X connect 12 1 8 0;
#X connect 13 0 14 0;
#X connect 14 0 15 0;
#X restore 132 32 pd fill-table;
#X obj 159 129 inlet~;
#N canvas 458 221 450 300 pitch-to-speed 0;
#X obj 134 68 r \$0pitch;
#X obj 203 68 r \$0detune;
#X obj 203 97 / 100;
#X obj 134 117 ++;
#X obj 134 168 * 100;
#X obj 134 143 expr pow(2 \, $f1/12);
#X obj 134 193 s \$0speed;
#X connect 0 0 3 0;
#X connect 1 0 2 0;
#X connect 2 0 3 1;
#X connect 3 0 5 0;
#X connect 4 0 6 0;
#X connect 5 0 4 0;
#X restore 341 360 pd pitch-to-speed;
#X connect 1 0 2 0;
#X connect 3 0 0 0;
#X connect 3 1 35 0;
#X connect 6 0 7 0;
#X connect 8 0 9 0;
#X connect 10 0 11 0;
#X connect 12 0 13 0;
#X connect 14 0 15 0;
#X connect 17 0 18 0;
#X connect 19 0 6 0;
#X connect 20 0 31 0;
#X connect 21 0 22 0;
#X connect 23 0 24 0;
#X connect 25 0 28 0;
#X connect 26 0 27 0;
#X connect 29 0 30 0;
#X connect 30 0 8 0;
#X connect 33 0 34 0;
#X connect 35 0 32 0;
#X connect 35 0 36 0;
#X connect 36 0 33 0;
#X connect 39 0 3 0;
