#N canvas 441 73 378 431 12;
#X obj 49 174 sample-player, f 19;
#N canvas 146 104 575 425 drive-degrade 0;
#X obj 37 379 outlet~;
#X obj 37 158 else/quantizer~;
#X obj 37 243 else/downsample~;
#X obj 139 133 clip 0 1;
#X obj 232 138 loadbang;
#X obj 232 163 samplerate~;
#X obj 259 297 lop~ 50;
#X obj 259 271 sig~ 1;
#X floatatom 146 17 5 0 0 0 - - - 0;
#X msg 146 41 bitcrush \$1;
#X floatatom 243 17 5 0 0 0 - - - 0;
#X msg 243 41 downsamp \$1;
#X floatatom 336 17 5 0 0 0 - - - 0;
#X obj 319 200 tgl 15 0 empty empty empty 17 7 0 10 #fcfcfc #000000
#000000 0 1;
#X msg 45 215 interp \$1;
#X obj 259 245 + 1;
#N canvas 458 221 387 270 hard-clip 0;
#X obj 156 30 inlet;
#X obj 156 55 != 0;
#X obj 96 100 inlet~;
#X obj 96 163 *~ 1;
#X obj 166 182 clip~ -1 1, f 12;
#X obj 166 207 outlet~;
#X msg 121 137 5, f 2;
#X obj 206 157 * -1;
#X msg 206 127 0.01;
#X msg 247 127 0.06;
#X msg 156 137 1, f 2;
#X obj 156 81 sel 0 1;
#X connect 0 0 1 0;
#X connect 1 0 11 0;
#X connect 2 0 3 0;
#X connect 3 0 4 0;
#X connect 4 0 5 0;
#X connect 6 0 3 1;
#X connect 7 0 4 1;
#X connect 8 0 7 0;
#X connect 9 0 4 2;
#X connect 10 0 4 2;
#X connect 10 0 7 0;
#X connect 10 0 3 1;
#X connect 11 0 10 0;
#X connect 11 1 8 0;
#X connect 11 1 9 0;
#X connect 11 1 6 0;
#X restore 37 280 pd hard-clip;
#X obj 379 265 tgl 15 0 empty empty empty 17 7 0 10 #fcfcfc #000000
#000000 0 1;
#X obj 139 108 / 1000;
#X obj 37 28 inlet~ fwd;
#X obj 37 323 expr~ atan($v1*$v2) * cbrt(1/$v2);
#X obj 37 352 *~;
#X obj 439 333 pot~ - 1;
#X obj 439 303 dbtorms;
#X obj 439 277 + 100;
#X obj 146 198 expr (1 - pow($f1 \, 0.1)) * $f2, f 18;
#X obj 139 83 route bitcrush downsamp overdrive interp hard-clip level
;
#X msg 336 41 overdrive \$1;
#X connect 1 0 2 0;
#X connect 2 0 16 0;
#X connect 3 0 1 1;
#X connect 4 0 5 0;
#X connect 5 0 25 1;
#X connect 6 0 20 1;
#X connect 7 0 6 0;
#X connect 8 0 9 0;
#X connect 9 0 26 0;
#X connect 10 0 11 0;
#X connect 11 0 26 0;
#X connect 12 0 27 0;
#X connect 13 0 14 0;
#X connect 14 0 2 0;
#X connect 15 0 7 0;
#X connect 16 0 20 0;
#X connect 17 0 16 1;
#X connect 18 0 3 0;
#X connect 19 0 1 0;
#X connect 19 1 26 0;
#X connect 20 0 21 0;
#X connect 21 0 0 0;
#X connect 22 0 21 1;
#X connect 23 0 22 0;
#X connect 24 0 23 0;
#X connect 25 0 2 1;
#X connect 26 0 18 0;
#X connect 26 1 25 0;
#X connect 26 2 15 0;
#X connect 26 3 13 0;
#X connect 26 4 17 0;
#X connect 26 5 24 0;
#X connect 27 0 26 0;
#X restore 62 207 pd drive-degrade;
#X obj 90 275 chorus-vibrato;
#X obj 49 385 outlet~;
#X obj 49 18 inlet;
#X obj 116 387 outlet~;
#X obj 76 241 multipoleLP~, f 16;
#N canvas 458 221 450 300 reverb 0;
#X obj 85 85 inlet~;
#X obj 85 196 *~;
#X obj 125 240 outlet~;
#X obj 155 85 inlet~;
#X obj 155 197 *~;
#X obj 157 17 inlet;
#X obj 103 170 pot~;
#X obj 173 171 pot~;
#X obj 173 145 dbtorms;
#X obj 173 118 + 100;
#X obj 103 145 dbtorms;
#X obj 103 119 + 100;
#X obj 157 43 route send delay;
#X connect 0 0 1 0;
#X connect 1 0 2 0;
#X connect 3 0 4 0;
#X connect 4 0 2 0;
#X connect 5 0 12 0;
#X connect 6 0 1 1;
#X connect 7 0 4 1;
#X connect 8 0 7 0;
#X connect 9 0 8 0;
#X connect 10 0 6 0;
#X connect 11 0 10 0;
#X connect 12 0 11 0;
#X connect 12 1 9 0;
#X restore 90 341 pd reverb;
#X obj 179 387 outlet;
#X obj 120 313 clone delay~ 8;
#N canvas 458 221 450 300 playslice 0;
#X obj 156 65 inlet;
#X obj 156 90 list split 1;
#X obj 156 115 f;
#X obj 156 140 stripnote;
#X obj 156 165 pack, f 9;
#X msg 156 190 slice \$1 \, play \$2;
#X obj 156 215 outlet;
#X obj 216 115 / 127;
#X connect 0 0 1 0;
#X connect 1 0 2 0;
#X connect 1 1 7 0;
#X connect 2 0 3 0;
#X connect 3 0 4 0;
#X connect 3 1 4 1;
#X connect 4 0 5 0;
#X connect 5 0 6 0;
#X connect 7 0 3 1;
#X restore 205 143 pd playslice;
#N canvas 458 221 450 300 type 0;
#X obj 198 55 inlet;
#X obj 198 80 route short loop;
#X obj 121 140 bng 15 250 50 0 empty empty empty 17 7 0 10 #fcfcfc
#000000 #000000;
#X obj 175 141 bng 15 250 50 0 empty empty empty 17 7 0 10 #fcfcfc
#000000 #000000;
#X msg 175 161 loop 1;
#X msg 121 161 loop 0;
#X obj 144 199 outlet;
#X obj 276 207 outlet;
#X msg 288 160 0;
#X obj 255 160 1;
#X connect 0 0 1 0;
#X connect 1 0 2 0;
#X connect 1 0 9 0;
#X connect 1 1 3 0;
#X connect 1 1 8 0;
#X connect 2 0 5 0;
#X connect 3 0 4 0;
#X connect 4 0 6 0;
#X connect 5 0 6 0;
#X connect 8 0 7 0;
#X connect 9 0 7 0;
#X restore 231 168 pd type;
#X obj 49 47 route source amp filter modulation delay reverb slice
type play, f 34;
#N canvas 458 221 450 300 pad-play 0;
#X obj 185 53 inlet;
#X obj 185 84 spigot 1;
#X obj 153 200 outlet;
#X obj 153 147 / 127;
#X obj 238 53 inlet;
#X obj 153 116 sel 0;
#X msg 153 173 slice 0 \, play \$1;
#X connect 0 0 1 0;
#X connect 1 0 5 0;
#X connect 3 0 6 0;
#X connect 4 0 1 1;
#X connect 5 1 3 0;
#X connect 6 0 2 0;
#X restore 257 195 pd pad-play;
#X obj 257 238 record;
#X connect 0 0 1 0;
#X connect 0 1 8 0;
#X connect 1 0 6 0;
#X connect 2 0 7 0;
#X connect 2 0 3 0;
#X connect 2 0 9 0;
#X connect 4 0 12 0;
#X connect 6 0 2 0;
#X connect 7 0 5 0;
#X connect 9 0 7 1;
#X connect 10 0 0 0;
#X connect 11 0 0 0;
#X connect 11 1 13 1;
#X connect 12 0 0 0;
#X connect 12 1 1 0;
#X connect 12 2 6 0;
#X connect 12 3 2 0;
#X connect 12 4 9 0;
#X connect 12 5 7 2;
#X connect 12 6 10 0;
#X connect 12 7 11 0;
#X connect 12 8 13 0;
#X connect 13 0 0 0;
