#N canvas 691 127 534 383 12;
#X declare -lib else;
#X declare -path macros;
#X declare -path atoms;
#N canvas 683 36 683 671 metronome 0;
#X obj 27 33 loadbang;
#X obj 321 66 r BPM;
#X obj 321 117 /;
#X msg 321 92 60000 \$1;
#X obj 168 22 r tapTempo;
#X obj 246 47 sel 1;
#X obj 246 22 tecla t;
#X obj 228 104 timer;
#X obj 228 79 t b b;
#X obj 228 190 + 1;
#X obj 228 129 t b f, f 6;
#X obj 228 239 sel 0;
#X obj 228 165 f;
#X obj 228 215 % 2;
#X obj 142 201 delay 2000;
#X msg 142 226 0;
#X obj 228 276 f, f 6;
#X msg 405 168 label \$1;
#X obj 405 193 s bpmLabel;
#X obj 405 117 /;
#X msg 405 92 60000 \$1;
#X obj 405 143 makefilename Bpm:\ %.1f;
#X msg 59 88 500;
#X obj 27 210 metro;
#X obj 27 58 t b b;
#X obj 59 185 / 8;
#X obj 39 255 count 8;
#X obj 27 332 s tick;
#X obj 39 280 sel 0;
#X obj 39 306 s beat;
#X obj 228 301 t b b f;
#X msg 251 328 0, f 2;
#X obj 59 113 s tempo;
#X obj 59 159 r tempo;
#X obj 281 328 s tempo;
#X obj 321 142 s tempo;
#X obj 405 66 r tempo;
#X connect 0 0 24 0;
#X connect 1 0 3 0;
#X connect 2 0 35 0;
#X connect 3 0 2 0;
#X connect 4 0 8 0;
#X connect 5 0 8 0;
#X connect 6 0 5 0;
#X connect 7 0 10 0;
#X connect 8 0 7 0;
#X connect 8 1 7 1;
#X connect 9 0 13 0;
#X connect 10 0 12 0;
#X connect 10 1 16 1;
#X connect 11 0 14 0;
#X connect 11 0 16 0;
#X connect 12 0 9 0;
#X connect 13 0 11 0;
#X connect 13 0 12 1;
#X connect 14 0 15 0;
#X connect 15 0 12 1;
#X connect 16 0 30 0;
#X connect 17 0 18 0;
#X connect 19 0 21 0;
#X connect 20 0 19 0;
#X connect 21 0 17 0;
#X connect 22 0 32 0;
#X connect 23 0 26 0;
#X connect 23 0 27 0;
#X connect 24 0 23 0;
#X connect 24 1 22 0;
#X connect 25 0 23 1;
#X connect 26 0 28 0;
#X connect 28 0 29 0;
#X connect 30 0 23 0;
#X connect 30 1 31 0;
#X connect 30 2 34 0;
#X connect 31 0 26 1;
#X connect 33 0 25 0;
#X connect 36 0 20 0;
#X restore 34 177 pd metronome;
#X obj 224 329 dac~;
#X obj 26 20 declare -lib else;
#X obj 254 64 cnv 15 130 25 empty bpmLabel Bpm:\ 5.2 0 12 0 21 #343434
#ee5500 0;
#N canvas 458 221 345 300 metrobangs 0;
#X obj 65 165 bng 15 3070 50 0 empty empty empty 17 7 0 10 #202020
#ff8300 #000000;
#X obj 90 165 bng 15 3070 50 0 empty empty empty 17 7 0 10 #202020
#faff00 #000000;
#X obj 34 43 r beat;
#X obj 34 68 count 2;
#X obj 34 93 sel 0 1;
#X obj 112 85 r setTempo;
#X msg 112 113 flashtime 50 \$1;
#X msg 90 37 0;
#X connect 2 0 3 0;
#X connect 3 0 4 0;
#X connect 4 0 0 0;
#X connect 4 1 1 0;
#X connect 5 0 6 0;
#X connect 5 0 7 0;
#X connect 6 0 1 0;
#X connect 6 0 0 0;
#X connect 7 0 3 1;
#X coords 0 -1 1 1 50 25 2 60 160;
#X restore 393 64 pd metrobangs;
#N canvas 290 176 614 371 ADC-FX 0;
#X text 11 200 classic FX \; * chorus - pedal or pd? \; * envelope
filter \; * harmonizer \; * verb \; * delay \; * phaser or monovibe?
\; * vocoder! \; * multi-shaped tremolo - leslie if stereo!;
#X text 17 9 bizarre \, desirable FX \; * bitwind - random tremolo
\, bitcrushing \, bit modulation (modulate the xfade?) \; * envelope
modulated LFO - stronger is faster - tremolo \, vibrato \, etc \; *
ring modulation verb + short delays and slow vibrato \; * chopper tremolo
\, sequenced tremolo \, etc \; * sequenced pitched delays - towers
\; * multi tapped delay w/ pitch \; * reversed \, tap tempo delay /
loop (infinite) \; * more lo-fi options: noisy reverb \, scratchy \,
gritty \; * sub bass with scratchy-noisy-verb is mean! (creations pt
2 - hiatus kayote) \; * envelope modulation on pitch - synth like fx?
\;, f 79;
#X restore 182 130 pd ADC-FX;
#N canvas 458 221 450 300 SEQUENCED-SYNTHS 0;
#X text 117 61 should be more performant \; auto-chorder \; GOOD \,
antialiased waveforms \; possible a monophonic-guitar-synth \; easy
sub octave \; easy auto sequencer \, with octaving! \;;
#X restore 266 130 pd SEQUENCED-SYNTHS;
#N canvas 683 36 683 671 N-VOICE-SAMPLER 0;
#X obj 108 402 sample-track;
#X obj 208 402 sample-track;
#X obj 308 402 sample-track;
#X obj 408 402 sample-track;
#X obj 159 446 sample-track;
#X obj 259 446 sample-track;
#X obj 359 446 sample-track;
#X obj 459 446 sample-track;
#X obj 221 341 route 0 1 2 3 4 5 6 7;
#X text 17 17 Each track can be a short or a loop \; Shorts are part
of a kit and have a note number \; Loops have a line number representing
a line on the grid \; ------------------------ \; track type will be
set outside the track abstraction \; Patterns will point to a loop
line or a kit \; Shorts could receive polyphonic information to play
melodies \; ------------------------ \; Ideia: 2 view modes para o
grid (toggle c/ shift btn) \; Track Mode \; ..:1st line: drumKit \,
outras p/ loops (por enqnto) \; Pattern Mode \; ..:1st line: drumKit
\, outras disponibilizam patterns verticalmente (melhorar) \; ------------------------
\; performance c/ nanopad \; uma linha para kit \, outra para acesso
rápido: pattern rec \, cue \, change pattern \, tap tempo \, sei la
\;, f 88;
#X obj 221 286 osc-grid-control;
#X obj 261 600 throw~ reverb_1;
#X obj 83 563 *~ 1;
#X obj 39 601 throw~ L;
#X obj 114 599 throw~ R;
#N canvas 458 221 450 300 rawctl 0;
#X msg 133 67 symbol ~/samples;
#X obj 133 92 openpanel;
#X obj 113 157 prepend 0;
#X msg 133 117 source file \$1;
#X obj 101 189 outlet;
#X obj 198 167 hradio 15 1 0 8 empty empty empty 0 -8 0 10 #fcfcfc
#000000 #000000 0;
#X obj 42 60 keys;
#X obj 42 85 hold 1;
#X msg 42 110 \$1 play \$2;
#X connect 0 0 1 0;
#X connect 1 0 3 0;
#X connect 2 0 4 0;
#X connect 3 0 2 0;
#X connect 5 0 2 1;
#X connect 6 0 7 0;
#X connect 7 0 8 0;
#X connect 8 0 4 0;
#X restore 145 285 pd rawctl;
#N canvas 458 221 450 300 show-received 0;
#X obj 37 37 inlet;
#X obj 37 92 prepend label;
#X obj 37 64 l2s;
#X obj 37 117 s received;
#X obj 108 34 loadbang;
#X msg 108 59 symbol;
#X connect 0 0 2 0;
#X connect 1 0 3 0;
#X connect 2 0 1 0;
#X connect 4 0 5 0;
#X connect 5 0 1 0;
#X restore 229 314 pd show-received;
#X msg 414 552 0 \$1;
#X msg 454 552 1 \$1;
#X msg 494 552 2 \$1;
#X msg 534 552 3 \$1;
#X msg 434 577 4 \$1;
#X msg 474 577 5 \$1;
#X msg 514 577 6 \$1;
#X msg 554 577 7 \$1;
#X obj 476 620 s track_positions;
#X connect 0 0 12 0;
#X connect 0 1 11 0;
#X connect 0 2 17 0;
#X connect 1 0 12 0;
#X connect 1 1 11 0;
#X connect 1 2 18 0;
#X connect 2 0 12 0;
#X connect 2 1 11 0;
#X connect 2 2 19 0;
#X connect 3 0 12 0;
#X connect 3 1 11 0;
#X connect 3 2 20 0;
#X connect 4 0 12 0;
#X connect 4 1 11 0;
#X connect 4 2 21 0;
#X connect 5 0 12 0;
#X connect 5 1 11 0;
#X connect 5 2 22 0;
#X connect 6 0 12 0;
#X connect 6 1 11 0;
#X connect 6 2 23 0;
#X connect 7 0 12 0;
#X connect 7 1 11 0;
#X connect 7 2 24 0;
#X connect 8 0 0 0;
#X connect 8 1 1 0;
#X connect 8 2 2 0;
#X connect 8 3 3 0;
#X connect 8 4 4 0;
#X connect 8 5 5 0;
#X connect 8 6 6 0;
#X connect 8 7 7 0;
#X connect 10 0 8 0;
#X connect 10 0 16 0;
#X connect 12 0 13 0;
#X connect 12 0 14 0;
#X connect 15 0 8 0;
#X connect 17 0 25 0;
#X connect 18 0 25 0;
#X connect 19 0 25 0;
#X connect 20 0 25 0;
#X connect 21 0 25 0;
#X connect 22 0 25 0;
#X connect 23 0 25 0;
#X connect 24 0 25 0;
#X restore 34 130 pd N-VOICE-SAMPLER;
#X obj 127 264 catch~ L;
#X obj 192 264 catch~ R;
#X text 127 176 <- ALL will be tied to the metronome \; it needs precision
from a threaded metro?;
#X obj 34 69 midi-setup;
#X obj 258 250 catch~ reverb_1;
#X obj 258 275 reverb282~ 6000;
#X obj 254 94 cnv 15 260 25 empty received empty 4 14 0 16 #202020
#feffc6 0;
#X obj 173 20 declare -path macros;
#X obj 334 20 declare -path atoms;
#X connect 8 0 1 0;
#X connect 9 0 1 1;
#X connect 12 0 13 0;
#X connect 13 0 1 0;
#X connect 13 1 1 1;
